<?xml version="1.0" standalone="no"?>
<!DOCTYPE svg PUBLIC "-//W3C//DTD SVG 20010904//EN"
 "http://www.w3.org/TR/2001/REC-SVG-20010904/DTD/svg10.dtd">
<svg version="1.0" xmlns="http://www.w3.org/2000/svg"
 width="450.000000pt" height="450.000000pt" viewBox="0 0 450.000000 450.000000"
 preserveAspectRatio="xMidYMid meet">
<metadata>
Created by potrace 1.14, written by Peter Selinger 2001-2017
</metadata>
<g transform="translate(0.000000,450.000000) scale(0.100000,-0.100000)"
fill="#000000" stroke="none">
<path d="M2108 4335 c-2 -1 -34 -5 -73 -8 -38 -3 -79 -8 -90 -10 -11 -3 -40
-8 -65 -11 -25 -3 -81 -15 -125 -27 -44 -11 -87 -22 -95 -24 -8 -2 -16 -4 -17
-5 -2 -2 -7 -4 -13 -5 -5 -1 -12 -4 -15 -5 -3 -1 -8 -3 -12 -5 -5 -1 -17 -5
-28 -9 -11 -4 -51 -19 -90 -33 -87 -32 -215 -96 -322 -161 -95 -57 -253 -172
-253 -184 0 -4 -4 -8 -9 -8 -25 0 -271 -261 -331 -350 -13 -19 -30 -42 -37
-50 -24 -26 -83 -124 -83 -137 0 -7 -4 -13 -8 -13 -5 0 -28 -39 -52 -87 -24
-49 -46 -90 -49 -93 -3 -3 -7 -9 -8 -15 -2 -10 -38 -107 -63 -170 -6 -16 -11
-31 -11 -32 0 -2 -5 -17 -10 -35 -18 -61 -38 -137 -45 -178 -3 -14 -8 -34 -11
-45 -8 -24 -9 -30 -17 -115 -9 -88 -11 -98 -18 -106 -4 -3 -3 -17 2 -30 5 -13
6 -26 1 -28 -5 -3 -7 -18 -5 -33 1 -15 -3 -34 -9 -42 -9 -12 -9 -13 0 -8 9 6
12 -8 9 -58 -1 -36 0 -65 3 -65 3 0 6 -24 7 -53 1 -48 7 -110 21 -212 3 -22 6
-48 6 -57 1 -10 4 -18 7 -18 3 0 6 -8 7 -17 3 -36 12 -72 22 -91 6 -11 8 -22
4 -25 -3 -4 0 -13 7 -22 7 -8 10 -22 6 -30 -3 -8 -1 -15 5 -15 6 0 7 -4 4 -10
-3 -5 -1 -10 4 -10 6 0 11 -9 11 -20 0 -12 8 -38 19 -60 14 -29 16 -42 7 -51
-8 -9 -8 -10 2 -5 7 4 12 1 12 -8 0 -9 5 -16 10 -16 6 0 10 -6 10 -13 0 -15
101 -220 120 -242 6 -8 8 -20 4 -26 -4 -7 -3 -9 3 -6 5 4 16 -6 24 -21 8 -15
19 -32 24 -39 6 -7 16 -19 23 -28 7 -8 9 -15 5 -15 -4 0 -3 -4 2 -8 6 -4 26
-27 45 -52 19 -25 38 -46 42 -48 5 -2 8 -8 8 -12 0 -5 11 -21 26 -35 14 -14
22 -30 19 -35 -3 -6 1 -7 9 -4 9 3 16 2 16 -3 0 -13 129 -143 141 -143 5 0 9
-7 9 -16 0 -8 5 -12 10 -9 5 3 10 -1 10 -9 0 -9 6 -16 13 -16 12 0 68 -43 118
-92 15 -14 30 -24 33 -21 2 3 16 -6 30 -19 14 -13 43 -32 63 -43 39 -21 52
-30 80 -55 9 -8 17 -13 17 -11 2 9 46 -11 46 -20 0 -6 5 -7 10 -4 5 3 10 2 10
-2 0 -5 16 -15 35 -22 19 -7 33 -16 30 -21 -3 -5 4 -7 15 -5 11 2 20 0 20 -5
0 -5 7 -6 17 -3 12 5 14 3 8 -7 -6 -10 -3 -12 13 -8 12 4 22 3 22 0 0 -4 14
-15 31 -24 16 -10 28 -14 25 -9 -3 4 10 3 29 -3 19 -6 35 -14 35 -18 0 -5 14
-8 30 -8 17 0 30 -5 30 -11 0 -6 6 -9 13 -6 6 2 28 -2 49 -9 20 -7 53 -15 73
-18 20 -4 44 -10 53 -14 9 -5 27 -7 40 -6 17 1 22 -3 17 -14 -4 -11 -2 -12 7
-5 7 6 22 9 33 7 11 -2 43 -6 70 -8 28 -3 50 -5 50 -6 0 -2 57 -8 108 -11 21
-1 40 -6 43 -11 3 -4 11 -8 17 -8 9 0 8 3 -1 8 -7 5 33 10 90 11 150 3 181 6
196 15 7 4 19 3 26 -4 10 -7 15 -8 18 0 2 6 20 11 41 12 20 1 37 4 37 7 0 3
15 6 33 5 17 0 37 2 42 5 11 6 13 7 59 16 16 3 38 11 49 16 15 9 18 8 11 -3
-6 -9 -3 -9 11 2 10 8 21 14 24 14 3 -1 17 3 31 8 14 6 37 11 52 12 16 0 28 5
28 10 0 5 7 3 15 -4 13 -11 14 -10 9 4 -4 10 -1 16 8 16 7 0 31 9 53 20 22 11
43 20 48 20 13 0 199 93 214 106 6 6 25 17 42 24 17 7 31 16 31 21 0 5 4 9 10
9 5 0 32 16 58 35 27 19 52 32 55 28 4 -3 7 1 7 10 0 9 7 17 15 17 8 0 15 3
15 8 1 10 81 67 91 65 5 -2 8 1 6 5 -4 15 103 113 115 106 6 -4 8 -3 5 3 -3 5
25 43 62 82 38 40 71 76 73 79 1 4 7 6 11 4 5 -1 6 2 2 7 -3 6 7 25 22 42 15
17 27 35 26 40 -2 5 4 9 13 9 8 0 12 5 9 10 -3 6 1 13 9 16 9 3 13 10 10 15
-3 5 -1 9 5 9 6 0 14 12 17 26 5 20 11 24 27 20 14 -3 17 -2 9 6 -11 11 -5 41
8 33 4 -3 7 3 6 13 0 9 5 16 12 14 8 -1 11 1 8 6 -5 8 16 54 54 122 8 14 15
27 15 30 0 3 11 27 23 54 12 27 22 51 22 55 0 3 9 23 19 43 11 19 17 39 14 42
-4 3 -1 6 5 6 6 0 9 9 7 20 -2 11 1 22 6 25 5 4 7 11 4 16 -4 5 -2 9 3 9 5 0
9 6 9 13 1 11 29 114 40 147 5 14 14 76 16 108 0 6 4 12 9 12 5 0 6 11 4 25
-3 14 -2 25 2 25 14 0 24 476 11 502 -6 10 -5 19 1 23 8 5 7 11 -1 21 -6 8 -9
25 -7 39 3 14 1 25 -4 25 -5 0 -8 8 -6 18 1 9 -1 23 -5 30 -5 6 -6 12 -4 12 6
0 -15 96 -43 195 -12 44 -22 86 -23 93 0 6 -4 12 -9 12 -4 0 -8 9 -8 20 0 11
-12 45 -26 77 -14 32 -27 65 -29 73 -2 8 -26 58 -54 110 -28 52 -58 110 -66
128 -8 17 -20 32 -25 32 -6 0 -10 5 -10 11 0 12 -60 103 -72 107 -4 2 -8 9 -8
15 0 7 -15 28 -33 48 -17 19 -44 51 -58 70 -64 83 -331 329 -358 329 -5 0 -11
4 -13 8 -4 10 -133 98 -133 92 0 -3 -13 5 -29 18 -16 12 -34 22 -42 22 -7 0
-14 3 -16 8 -8 19 -287 141 -383 167 -16 5 -32 9 -35 10 -82 25 -224 55 -335
70 -46 7 -391 15 -397 10z"/>
<path d="M387 1219 c7 -7 15 -10 18 -7 3 3 -2 9 -12 12 -14 6 -15 5 -6 -5z"/>
<path d="M3786 778 c3 -5 10 -6 15 -3 13 9 11 12 -6 12 -8 0 -12 -4 -9 -9z"/>
<path d="M747 699 c7 -7 15 -10 18 -7 3 3 -2 9 -12 12 -14 6 -15 5 -6 -5z"/>
<path d="M935 589 c-4 -6 -5 -12 -2 -15 2 -3 7 2 10 11 7 17 1 20 -8 4z"/>
<path d="M3353 415 c0 -8 4 -12 9 -9 5 3 6 10 3 15 -9 13 -12 11 -12 -6z"/>
<path d="M3210 366 c0 -2 7 -7 16 -10 8 -3 12 -2 9 4 -6 10 -25 14 -25 6z"/>
<path d="M2870 220 c0 -5 5 -10 11 -10 5 0 7 5 4 10 -3 6 -8 10 -11 10 -2 0
-4 -4 -4 -10z"/>
<path d="M1830 161 c0 -6 4 -13 10 -16 6 -3 7 1 4 9 -7 18 -14 21 -14 7z"/>
<path d="M2675 161 c-3 -5 -2 -12 3 -15 5 -3 9 1 9 9 0 17 -3 19 -12 6z"/>
<path d="M1746 122 c-3 -5 1 -9 9 -9 8 0 12 4 9 9 -3 4 -7 8 -9 8 -2 0 -6 -4
-9 -8z"/>
<path d="M2507 99 c7 -7 15 -10 18 -7 3 3 -2 9 -12 12 -14 6 -15 5 -6 -5z"/>
</g>
</svg>
